HIERARCHY
ROOT Hips
{
	OFFSET 51.810799 -9.025853 84.308403
	CHANNELS 6 Xposition Yposition Zposition Xrotation Yrotation Zrotation
	JOINT spine
	{
		OFFSET 0.000000 -0.342408 5.954384
		CHANNELS 3 Xrotation Yrotation Zrotation
		JOINT spine1
		{
			OFFSET 0.000000 -0.000002 8.856018
			CHANNELS 3 Xrotation Yrotation Zrotation
			JOINT spine2
			{
				OFFSET 0.000000 -0.000001 8.485672
				CHANNELS 3 Xrotation Yrotation Zrotation
				JOINT Neck
				{
					OFFSET 0.000000 -1.038704 21.786301
					CHANNELS 3 Xrotation Yrotation Zrotation
					JOINT Head
					{
						OFFSET 0.000000 -0.000001 6.582199
						CHANNELS 3 Xrotation Yrotation Zrotation
						End Site
						{
							OFFSET 0.000000 5.254357 15.932602
						}
					}
				}
				JOINT RightShoulder
				{
					OFFSET -3.573071 0.497523 9.163864
					CHANNELS 3 Xrotation Yrotation Zrotation
					JOINT RightArm
					{
						OFFSET 0.000000 -0.000002 12.019196
						CHANNELS 3 Xrotation Yrotation Zrotation
						JOINT RightArmRoll
						{
							OFFSET 0.000000 -0.000001 6.067551
							CHANNELS 3 Xrotation Yrotation Zrotation
							JOINT RightForeArm
							{
								OFFSET 0.000000 -0.000003 17.672592
								CHANNELS 3 Xrotation Yrotation Zrotation
								JOINT RightForeArmRoll
								{
									OFFSET 0.000000 -0.000001 6.808716
									CHANNELS 3 Xrotation Yrotation Zrotation
									JOINT RightHand
									{
										OFFSET 0.000000 -0.000003 13.663605
										CHANNELS 3 Xrotation Yrotation Zrotation
										End Site
										{
											OFFSET 0.000000 0.000000 0.100006
										}
									}
								}
							}
						}
					}
				}
				JOINT LeftShoulder
				{
					OFFSET 3.573071 0.497523 9.163864
					CHANNELS 3 Xrotation Yrotation Zrotation
					JOINT LeftArm
					{
						OFFSET 0.000000 -0.000002 12.019196
						CHANNELS 3 Xrotation Yrotation Zrotation
						JOINT LeftArmRoll
						{
							OFFSET 0.000000 -0.000001 6.067551
							CHANNELS 3 Xrotation Yrotation Zrotation
							JOINT LeftForeArm
							{
								OFFSET 0.000000 -0.000003 17.672592
								CHANNELS 3 Xrotation Yrotation Zrotation
								JOINT LeftForeArmRoll
								{
									OFFSET 0.000000 -0.000001 6.808716
									CHANNELS 3 Xrotation Yrotation Zrotation
									JOINT LeftHand
									{
										OFFSET 0.000000 -0.000003 13.663605
										CHANNELS 3 Xrotation Yrotation Zrotation
										End Site
										{
											OFFSET 0.000000 0.000000 0.100006
										}
									}
								}
							}
						}
					}
				}
			}
		}
	}
	JOINT RightUpLeg
	{
		OFFSET -5.277740 0.811858 -0.967796
		CHANNELS 3 Xrotation Yrotation Zrotation
		JOINT RightUpLegRoll
		{
			OFFSET 0.000000 -0.000003 16.021400
			CHANNELS 3 Xrotation Yrotation Zrotation
			JOINT RightLeg
			{
				OFFSET 0.000000 0.000003 -19.840096
				CHANNELS 3 Xrotation Yrotation Zrotation
				JOINT RightLegRoll
				{
					OFFSET 0.000000 -0.000003 19.904999
					CHANNELS 3 Xrotation Yrotation Zrotation
					JOINT RightFoot
					{
						OFFSET 0.000000 -0.000003 16.567497
						CHANNELS 3 Xrotation Yrotation Zrotation
						JOINT RightToeBase
						{
							OFFSET 0.000000 -0.000002 13.849602
							CHANNELS 3 Xrotation Yrotation Zrotation
							End Site
							{
								OFFSET 0.005871 0.773116 6.707275
							}
						}
					}
				}
			}
		}
	}
	JOINT LeftUpLeg
	{
		OFFSET 5.277740 0.811858 -0.967796
		CHANNELS 3 Xrotation Yrotation Zrotation
		JOINT LeftUpLegRoll
		{
			OFFSET 0.000000 -0.000003 16.021500
			CHANNELS 3 Xrotation Yrotation Zrotation
			JOINT LeftLeg
			{
				OFFSET 0.000000 -0.000003 19.839996
				CHANNELS 3 Xrotation Yrotation Zrotation
				JOINT LeftLegRoll
				{
					OFFSET 0.000000 -0.000004 20.089005
					CHANNELS 3 Xrotation Yrotation Zrotation
					JOINT LeftFoot
					{
						OFFSET 0.000000 -0.000003 16.383499
						CHANNELS 3 Xrotation Yrotation Zrotation
						JOINT LeftToeBase
						{
							OFFSET 0.000000 -0.000002 13.849594
							CHANNELS 3 Xrotation Yrotation Zrotation
							End Site
							{
								OFFSET -0.026310 0.773116 6.707275
							}
						}
					}
				}
			}
		}
	}
}
MOTION
Frames: 13
Frame Time: 0.041667
52.999104 -4.810444 84.382195 -8.490170 1.622751 -2.627106 -0.550944 -0.402930 0.068008 2.902490 -0.807527 0.135809 4.547632 -0.805912 0.147633 19.624991 3.878791 -1.879963 0.960728 -4.394664 -1.723088 2.472151 -74.648879 0.917313 -46.587044 -113.317947 -51.308497 0.000000 -0.000004 -0.000000 -0.026444 3.640890 -1.990690 -0.000005 0.000005 -3.011608 -5.000156 -7.999932 0.000010 -4.191494 63.393199 5.303451 -30.936174 123.591412 45.014403 0.000001 0.000000 0.000001 -0.027567 -3.639459 1.990779 0.000002 0.000004 3.000009 -5.000170 7.999949 -0.000016 2.882996 179.990019 2.983578 -179.999991 0.000005 -1.181003 173.234853 -2.638520 -0.407887 -0.000000 0.000003 0.064457 68.244832 6.913622 2.129604 25.456955 -7.352353 0.000005 1.398045 176.910915 -1.570323 -0.000005 -0.000005 -1.150330 -12.149347 2.242526 0.571777 -0.000003 0.000002 -0.223395 71.375361 -6.825468 -2.130811 25.456957 7.355613 0.000001 
52.998505 -4.814533 84.380791 -8.490789 1.622413 -2.638418 -0.550759 -0.402644 0.068008 2.903939 -0.806870 0.135809 4.549081 -0.805257 0.147634 19.649324 3.869138 -1.887975 0.884361 -4.396057 -1.732449 2.487930 -74.664329 0.932487 -46.627376 -113.313426 -51.338588 0.000000 -0.000003 0.000000 -0.026444 3.640890 -1.990690 -0.000004 0.000005 -3.011609 -5.000155 -7.999931 0.000011 -4.173308 63.388923 5.282082 -30.934074 123.590839 45.012152 -0.000001 -0.000000 0.000001 -0.027568 -3.639460 1.990778 0.000001 0.000004 3.000010 -5.000171 7.999950 -0.000017 2.881866 179.993011 2.985758 -179.999991 0.000005 -1.181003 173.230031 -2.637504 -0.408988 -0.000000 0.000003 0.064457 68.247680 6.913657 2.129534 25.456960 -7.352354 0.000006 1.404472 176.912910 -1.569901 -0.000005 -0.000005 -1.150330 -12.145849 2.242937 0.571767 -0.000004 0.000002 -0.223395 71.375374 -6.825499 -2.130817 25.456955 7.355613 -0.000000 
52.994701 -4.823163 84.382599 -8.491484 1.621905 -2.649754 -0.550594 -0.402320 0.068008 2.905409 -0.806158 0.135809 4.550550 -0.804545 0.147634 19.675263 3.859780 -1.896344 0.804939 -4.398137 -1.742189 2.504021 -74.679758 0.947986 -46.667913 -113.308986 -51.368917 0.000000 -0.000003 0.000001 -0.026444 3.640891 -1.990690 -0.000001 0.000005 -3.011608 -5.000154 -7.999931 0.000010 -4.154811 63.384955 5.260390 -30.931499 123.590115 45.009003 0.000002 0.000000 -0.000000 -0.027569 -3.639459 1.990778 -0.000002 0.000004 3.000011 -5.000174 7.999949 -0.000019 2.880747 179.996016 2.988079 -179.999991 0.000005 -1.181003 173.225113 -2.637476 -0.409215 -0.000000 0.000003 0.064457 68.250624 6.913627 2.129543 25.456962 -7.352351 0.000004 1.411058 176.915942 -1.569391 -0.000004 -0.000004 -1.150330 -12.142349 2.243337 0.571751 -0.000004 0.000002 -0.223395 71.375593 -6.825499 -2.130703 25.456955 7.355613 0.000001 
52.995705 -4.826785 84.378494 -8.492233 1.621288 -2.661104 -0.550434 -0.401969 0.068008 2.906888 -0.805406 0.135810 4.552030 -0.803795 0.147634 19.702213 3.850617 -1.904950 0.723386 -4.400679 -1.752192 2.520373 -74.695379 0.963752 -46.708641 -113.304622 -51.399451 -0.000002 -0.000003 0.000001 -0.026443 3.640890 -1.990690 -0.000005 0.000005 -3.011609 -5.000155 -7.999931 0.000010 -4.136119 63.381294 5.238492 -30.929518 123.588503 45.006428 0.000001 0.000000 -0.000001 -0.027566 -3.639460 1.990781 0.000000 0.000005 3.000009 -5.000173 7.999950 -0.000016 2.879647 179.998994 2.990479 -179.999991 0.000005 -1.181003 173.220072 -2.637449 -0.409446 -0.000000 0.000003 0.064457 68.253568 6.913633 2.129560 25.456960 -7.352352 0.000005 1.417753 176.918948 -1.568837 -0.000004 -0.000004 -1.150330 -12.138750 2.243740 0.571727 -0.000003 0.000002 -0.223395 71.375689 -6.825496 -2.130796 25.456955 7.355613 0.000000 
53.001900 -4.821822 84.377701 -8.493009 1.620613 -2.672462 -0.550284 -0.401604 0.068008 2.908379 -0.804633 0.135810 4.553510 -0.803023 0.147634 19.729667 3.841575 -1.913686 0.640604 -4.403486 -1.762354 2.536875 -74.711013 0.979683 -46.749380 -113.300278 -51.430013 0.000001 -0.000003 -0.000000 -0.026444 3.640891 -1.990689 -0.000003 0.000005 -3.011609 -5.000157 -7.999932 0.000011 -4.117297 63.377619 5.216461 -30.927541 123.586891 45.003570 -0.000001 -0.000001 -0.000002 -0.027569 -3.639460 1.990778 0.000001 0.000005 3.000011 -5.000174 7.999950 -0.000017 2.878557 180.002997 2.992981 -179.999991 0.000005 -1.181003 173.214963 -2.636430 -0.409563 -0.000000 0.000003 0.064457 68.256519 6.913640 2.129576 25.456959 -7.352351 0.000005 1.424509 176.921953 -1.568246 -0.000005 -0.000005 -1.150330 -12.135251 2.244150 0.571708 -0.000004 0.000002 -0.223395 71.375900 -6.825495 -2.130783 25.456955 7.355613 0.000001 
53.008598 -4.824000 84.378601 -8.493797 1.619907 -2.683825 -0.550132 -0.401237 0.068008 2.909867 -0.803855 0.135810 4.554999 -0.802245 0.147634 19.757418 3.832538 -1.922455 0.557523 -4.406332 -1.772576 2.553440 -74.726641 0.995666 -46.790296 -113.296016 -51.460745 -0.000001 -0.000003 0.000001 -0.026443 3.640890 -1.990689 -0.000004 0.000005 -3.011610 -5.000155 -7.999930 0.000010 -4.098474 63.374060 5.194422 -30.924631 123.586085 44.999554 -0.000000 -0.000000 -0.000002 -0.027569 -3.639460 1.990777 0.000001 0.000005 3.000011 -5.000174 7.999950 -0.000015 2.877466 180.006016 2.995451 -179.999991 0.000005 -1.181003 173.209827 -2.636403 -0.410797 -0.000000 0.000003 0.064457 68.259558 6.913617 2.129582 25.456960 -7.352352 0.000005 1.431274 176.925955 -1.567630 -0.000005 -0.000004 -1.150330 -12.131650 2.244552 0.571683 -0.000004 0.000002 -0.223395 71.376112 -6.825492 -2.130770 25.456959 7.355613 0.000000 
53.037994 -4.790853 84.366096 -8.494565 1.619241 -2.695183 -0.549978 -0.400877 0.068008 2.911346 -0.803087 0.135810 4.556488 -0.801478 0.147634 19.784770 3.823447 -1.931141 0.475047 -4.409028 -1.782720 2.569964 -74.742173 1.011621 -46.831069 -113.291692 -51.491334 -0.000001 -0.000003 0.000000 -0.026444 3.640891 -1.990689 -0.000004 0.000005 -3.011609 -5.000153 -7.999931 0.000011 -4.079721 63.370488 5.172467 -30.922493 123.584432 44.996651 0.000001 -0.000001 -0.000001 -0.027566 -3.639461 1.990778 0.000001 0.000004 3.000010 -5.000174 7.999949 -0.000017 2.876377 180.009991 2.997941 -179.999991 0.000005 -1.181002 173.204745 -2.636375 -0.411032 -0.000000 0.000003 0.064457 68.262516 6.913659 2.129504 25.456959 -7.352350 0.000005 1.438018 176.928974 -1.567046 -0.000004 -0.000005 -1.150330 -12.128151 2.244953 0.571662 -0.000003 0.000002 -0.223395 71.376331 -6.825487 -2.130756 25.456957 7.355614 0.000000 
53.027500 -4.797703 84.366997 -8.495295 1.618665 -2.706528 -0.549816 -0.400534 0.068009 2.912827 -0.802348 0.135810 4.557956 -0.800739 0.147634 19.811420 3.814196 -1.939641 0.394101 -4.411356 -1.792697 2.586390 -74.757787 1.027466 -46.871657 -113.287321 -51.521739 -0.000002 -0.000003 0.000000 -0.026445 3.640891 -1.990689 -0.000003 0.000005 -3.011609 -5.000155 -7.999932 0.000011 -4.061111 63.366622 5.150649 -30.919891 123.583722 44.993291 -0.000001 -0.000000 -0.000001 -0.027570 -3.639460 1.990779 0.000002 0.000004 3.000011 -5.000173 7.999949 -0.000017 2.875275 180.012996 3.000322 -179.999991 0.000005 -1.181003 173.199705 -2.635357 -0.411145 -0.000000 0.000004 0.064457 68.265453 6.913628 2.129615 25.456955 -7.352352 0.000005 1.444671 176.931980 -1.566507 -0.000005 -0.000005 -1.150330 -12.124553 2.245364 0.571642 -0.000004 0.000002 -0.223395 71.376542 -6.825487 -2.130743 25.456957 7.355613 0.000000 
53.009697 -4.827824 84.376404 -8.495971 1.618207 -2.717856 -0.549646 -0.400221 0.068008 2.914287 -0.801652 0.135810 4.559416 -0.800044 0.147634 19.836850 3.804712 -1.947853 0.315596 -4.413102 -1.802376 2.602591 -74.773223 1.043073 -46.912273 -113.282949 -51.552144 -0.000001 -0.000003 0.000001 -0.026445 3.640890 -1.990690 -0.000001 0.000006 -3.011608 -5.000155 -7.999931 0.000011 -4.042720 63.362538 5.129076 -30.918251 123.582178 44.991399 -0.000000 0.000000 0.000000 -0.027566 -3.639460 1.990779 0.000001 0.000005 3.000010 -5.000175 7.999949 -0.000014 2.874146 180.015988 3.002593 -179.999991 0.000005 -1.181003 173.194814 -2.635330 -0.411370 -0.000000 0.000003 0.064457 68.268308 6.913663 2.129543 25.456962 -7.352352 0.000005 1.451221 176.933988 -1.566037 -0.000004 -0.000005 -1.150330 -12.121051 2.245766 0.571626 -0.000004 0.000002 -0.223395 71.376652 -6.825485 -2.130735 25.456957 7.355613 0.000000 
53.012104 -4.814376 84.376709 -8.496570 1.617937 -2.729160 -0.549457 -0.399949 0.068008 2.915726 -0.801018 0.135810 4.560867 -0.799410 0.147634 19.860575 3.794894 -1.955659 0.240445 -4.414082 -1.811656 2.618495 -74.788550 1.058374 -46.952725 -113.278523 -51.582337 0.000001 -0.000004 0.000000 -0.026442 3.640890 -1.990690 -0.000002 0.000005 -3.011608 -5.000154 -7.999931 0.000010 -4.024695 63.358139 5.107869 -30.915530 123.582506 44.988554 0.000000 0.000000 0.000000 -0.027568 -3.639460 1.990782 0.000001 0.000005 3.000010 -5.000171 7.999949 -0.000016 2.873008 180.018979 3.004723 -179.999991 0.000005 -1.181003 173.190102 -2.634314 -0.412465 -0.000000 0.000003 0.064458 68.271142 6.913660 2.129565 25.456959 -7.352355 0.000007 1.457587 176.936979 -1.565621 -0.000005 -0.000004 -1.150330 -12.117552 2.246167 0.571615 -0.000004 0.000002 -0.223395 71.376658 -6.825516 -2.130740 25.456959 7.355613 0.000001 
52.999203 -4.836385 84.378708 -8.497059 1.617895 -2.740431 -0.549252 -0.399727 0.068008 2.917146 -0.800462 0.135809 4.562275 -0.798854 0.147634 19.882286 3.784656 -1.962965 0.169569 -4.414070 -1.820400 2.634014 -74.803781 1.073276 -46.993006 -113.274036 -51.612328 -0.000002 -0.000004 -0.000000 -0.026445 3.640890 -1.990690 -0.000005 0.000005 -3.011609 -5.000153 -7.999931 0.000010 -4.007070 63.353215 5.087097 -30.913146 123.582916 44.986682 -0.000001 -0.000001 -0.000001 -0.027567 -3.639461 1.990778 0.000000 0.000004 3.000010 -5.000174 7.999950 -0.000019 2.871825 180.021985 3.006673 -179.999991 0.000005 -1.181002 173.185621 -2.634289 -0.412673 -0.000000 0.000003 0.064457 68.273874 6.913648 2.129590 25.456962 -7.352350 0.000004 1.463739 176.939998 -1.565293 -0.000004 -0.000004 -1.150330 -12.114153 2.246577 0.571616 -0.000004 0.000002 -0.223395 71.376652 -6.825484 -2.130835 25.456957 7.355613 0.000000 
52.999504 -4.832963 84.377396 -8.497430 1.618131 -2.751655 -0.549019 -0.399570 0.068008 2.918536 -0.799999 0.135809 4.563665 -0.798392 0.147634 19.901477 3.773925 -1.969666 0.103888 -4.412873 -1.828506 2.649047 -74.818821 1.087677 -47.032942 -113.269426 -51.641920 -0.000002 -0.000003 0.000000 -0.026447 3.640890 -1.990690 -0.000006 0.000004 -3.011609 -5.000155 -7.999932 0.000010 -3.989948 63.347696 5.066837 -30.911565 123.583544 44.986286 -0.000003 -0.000000 0.000000 -0.027570 -3.639461 1.990779 0.000001 0.000004 3.000009 -5.000173 7.999949 -0.000017 2.870618 180.024976 3.008412 -179.999991 0.000005 -1.181003 173.181386 -2.634266 -0.412866 -0.000000 0.000003 0.064457 68.276497 6.913628 2.129624 25.456959 -7.352350 0.000006 1.469638 176.941993 -1.565117 -0.000005 -0.000005 -1.150330 -12.110854 2.246976 0.571625 -0.000004 0.000002 -0.223395 71.376542 -6.825487 -2.130743 25.456955 7.355612 0.000001 
53.004906 -4.828984 84.378098 -8.497663 1.618694 -2.762845 -0.548765 -0.399485 0.068009 2.919885 -0.799648 0.135809 4.565016 -0.798041 0.147633 19.917644 3.762609 -1.975650 0.044311 -4.410278 -1.835843 2.663496 -74.833663 1.101466 -47.072708 -113.264761 -51.671272 -0.000001 -0.000003 0.000001 -0.026446 3.640890 -1.990689 -0.000003 0.000005 -3.011610 -5.000154 -7.999932 0.000009 -3.973438 63.341535 5.047226 -30.908911 123.586044 44.985316 -0.000001 -0.000000 0.000001 -0.027568 -3.639460 1.990779 0.000001 0.000005 3.000010 -5.000172 7.999948 -0.000014 2.869356 180.026971 3.009831 -179.999991 0.000005 -1.181003 173.177466 -2.633241 -0.413937 -0.000000 0.000003 0.064457 68.278922 6.913631 2.129570 25.456959 -7.352353 0.000005 1.475232 176.943017 -1.565100 -0.000006 -0.000004 -1.150330 -12.107554 2.247375 0.571642 -0.000003 0.000002 -0.223395 71.376235 -6.825522 -2.130768 25.456955 7.355613 -0.000000 
